# xmcd CD database file
#
# Track frame offsets:
#	182
#	22400
#	43932
#	71082
#	92580
#	120692
#	143877
#	159952
#	185582
#	200847
#
# Disc length: 2849 seconds
#
# Revision: 0
# Processed by: cddbd v1.4PL0 Copyright (c) Steve Scherf et al.
# Submitted via: CDex 1.50Beta7
#
DISCID=970b1f0a
DTITLE=Out Of The Blue - Blues In A Bottle
DYEAR=1995
DGENRE=Blues
TTITLE0=The Thrill Has Gone
TTITLE1=Just Thought I Had The Blues
TTITLE2=Blues In A Bottle
TTITLE3=Two Headed Man
TTITLE4=I Ain't Holdin' My Breath
TTITLE5=I Don't Believe
TTITLE6=Long Way Home
TTITLE7=Ain't Nobody's Buisness
TTITLE8=The Strut
TTITLE9=Holy Water
EXTD=YEAR: 1995
EXTT0=
EXTT1=
EXTT2=
EXTT3=
EXTT4=
EXTT5=
EXTT6=
EXTT7=
EXTT8=
EXTT9=
PLAYORDER=
